<svg viewBox="0 0 67 67">
<path d="M67 51.9145C64.5629 52.5343 63.0554 51.9417 61.7028 49.9108L52.0841 36.6029L50.6939 34.7604L39.4609 49.9548C38.1774 51.7826 36.8312 52.5782 34.4359 51.9313L48.82 32.6227L35.4283 15.1818C37.7315 14.7337 39.3227 14.9619 40.736 17.0243L50.7127 30.4975L60.7627 17.0975C62.0504 15.2697 63.4343 14.5746 65.7458 15.2488L60.5533 22.133L53.5183 31.2932C52.6808 32.34 52.796 33.0561 53.5665 34.0674L67 51.9145ZM0.01675 32.3003L1.19344 26.5131C4.39687 15.0603 17.5247 10.3012 26.5781 17.3781C31.869 21.5405 33.1838 27.4281 32.9221 34.0234H3.09875C2.65069 45.895 11.1953 53.0598 22.0891 49.4041C25.9102 48.1206 28.1609 45.1287 29.2874 41.385C29.859 39.509 30.8053 39.2159 32.5683 39.7519C31.668 44.4335 29.637 48.3447 25.3448 50.7923C18.9317 54.4563 9.77781 53.2713 4.96219 48.1793C2.09375 45.225 0.908688 41.4814 0.376875 37.4781C0.293125 36.8165 0.125625 36.1863 0 35.5519C0.0111667 34.4687 0.01675 33.3855 0.01675 32.3024V32.3003ZM3.15319 31.5046H30.1039C29.9281 22.9203 24.5827 16.8233 17.2776 16.7709C9.25856 16.7081 3.50075 22.6606 3.15319 31.5046Z" fill="white"/>
</svg>
