<svg viewBox="0 0 54 56">
<path d="M0 0.875V55.125H54V0.875H0ZM29.3866 43.1852C29.3866 48.4648 26.3009 50.8746 21.8049 50.8746C17.7429 50.8746 15.3924 48.7676 14.1871 46.2125L18.3214 43.7059C19.117 45.1227 19.8402 46.3215 21.5879 46.3215C23.2513 46.3215 24.3121 45.6676 24.3121 43.1125V25.784H29.3866V43.1852ZM41.392 50.8746C36.679 50.8746 33.6295 48.6223 32.1469 45.6676L36.2813 43.2699C37.3661 45.05 38.7884 46.3699 41.2835 46.3699C43.3808 46.3699 44.7308 45.3164 44.7308 43.8512C44.7308 42.1074 43.3567 41.4898 41.0304 40.4605L39.7647 39.9156C36.1004 38.3535 33.6777 36.3797 33.6777 32.2262C33.6777 28.3996 36.5826 25.4934 41.1027 25.4934C44.333 25.4934 46.6473 26.6195 48.3107 29.5742L44.3571 32.1172C43.4893 30.5551 42.5491 29.9375 41.0906 29.9375C39.608 29.9375 38.6679 30.882 38.6679 32.1172C38.6679 33.643 39.608 34.2605 41.7897 35.2172L43.0554 35.7621C47.3705 37.6148 49.7933 39.516 49.7933 43.7785C49.7933 48.3559 46.2013 50.8746 41.392 50.8746Z" fill="white"/>
</svg>
