<svg viewBox="0 0 48 56" fill="currentColor">
<rect x="3" y="7" width="43" height="43" fill="white"/>
<path d="M44.5714 3.5H3.41786C1.53214 3.5 0 5.08594 0 7.03281V48.9672C0 50.9141 1.53214 52.5 3.41786 52.5H44.5714C46.4571 52.5 48 50.9141 48 48.9672V7.03281C48 5.08594 46.4571 3.5 44.5714 3.5ZM14.5071 45.5H7.39286V22.1156H14.5179V45.5H14.5071ZM10.95 18.9219C8.66786 18.9219 6.825 17.0297 6.825 14.7109C6.825 12.3922 8.66786 10.5 10.95 10.5C13.2214 10.5 15.075 12.3922 15.075 14.7109C15.075 17.0406 13.2321 18.9219 10.95 18.9219ZM41.175 45.5H34.0607V34.125C34.0607 31.4125 34.0071 27.9234 30.3643 27.9234C26.6571 27.9234 26.0893 30.8766 26.0893 33.9281V45.5H18.975V22.1156H25.8V25.3094H25.8964C26.85 23.4719 29.175 21.5359 32.6357 21.5359C39.8357 21.5359 41.175 26.3812 41.175 32.6812V45.5Z"/>
</svg>   