<svg viewBox="0 0 70 56">
<path d="M34.5953 49.4376C34.3656 49.4376 34.1359 49.372 33.9281 49.2626L31.8281 48.0157C31.5109 47.8407 31.6641 47.7751 31.7734 47.7423C32.1891 47.6001 32.2766 47.5673 32.725 47.3048C32.7688 47.2829 32.8344 47.2939 32.8781 47.3157L34.4969 48.2782C34.5516 48.3111 34.6391 48.3111 34.6938 48.2782L41.0156 44.6251C41.0703 44.5923 41.1141 44.5267 41.1141 44.4501V37.1548C41.1141 37.0782 41.0813 37.0126 41.0156 36.9798L34.6938 33.3376C34.6391 33.3048 34.5625 33.3048 34.4969 33.3376L28.175 36.9798C28.1094 37.0126 28.0766 37.0892 28.0766 37.1548V44.4501C28.0766 44.5157 28.1203 44.5814 28.175 44.6142L29.9031 45.6095C30.8437 46.0798 31.4234 45.522 31.4234 44.9751V37.7673C31.4234 37.6689 31.5 37.5814 31.6094 37.5814H32.4078C32.5062 37.5814 32.5938 37.6579 32.5938 37.7673V44.9751C32.5938 46.2329 31.9156 46.9439 30.7234 46.9439C30.3625 46.9439 30.0672 46.9439 29.2688 46.5501L27.6062 45.5986C27.2016 45.3579 26.9391 44.9204 26.9391 44.4501V37.1548C26.9391 36.6845 27.1906 36.2361 27.6062 36.0064L33.9281 32.3532C34.3328 32.1236 34.8578 32.1236 35.2516 32.3532L41.5734 36.0064C41.9781 36.247 42.2406 36.6845 42.2406 37.1548V44.4501C42.2406 44.9204 41.9891 45.3689 41.5734 45.5986L35.2516 49.2517C35.0656 49.372 34.8359 49.4376 34.5953 49.4376ZM39.7031 42.2407C39.7031 40.8736 38.7844 40.5126 36.8375 40.2501C34.8687 39.9876 34.6719 39.8564 34.6719 39.397C34.6719 39.0142 34.8359 38.5111 36.2906 38.5111C37.5922 38.5111 38.0734 38.7954 38.2703 39.6704C38.2922 39.7579 38.3578 39.8126 38.4453 39.8126H39.2656C39.3203 39.8126 39.3641 39.7907 39.3969 39.7579C39.4297 39.7142 39.4516 39.6704 39.4406 39.6157C39.3094 38.1064 38.3141 37.4064 36.2906 37.4064C34.4859 37.4064 33.4141 38.172 33.4141 39.4407C33.4141 40.8298 34.4859 41.2017 36.2141 41.3767C38.2813 41.5845 38.4453 41.8798 38.4453 42.2845C38.4453 42.9954 37.8766 43.2907 36.5422 43.2907C34.8688 43.2907 34.4969 42.8751 34.3766 42.0439C34.3656 41.9564 34.2891 41.8907 34.1906 41.8907H33.3703C33.2719 41.8907 33.1844 41.9673 33.1844 42.0767C33.1844 43.1376 33.7641 44.4064 36.5312 44.4064C38.5547 44.4064 39.7031 43.6189 39.7031 42.2407ZM45.6641 36.7611C45.6641 37.4282 45.1172 37.9751 44.45 37.9751C43.7828 37.9751 43.2359 37.4282 43.2359 36.7611C43.2359 36.072 43.8047 35.547 44.45 35.547C45.1062 35.5361 45.6641 36.072 45.6641 36.7611ZM45.4672 36.7611C45.4672 36.1923 45.0078 35.7439 44.4391 35.7439C43.8812 35.7439 43.4219 36.1923 43.4219 36.7611C43.4219 37.3298 43.8812 37.7892 44.4391 37.7892C45.0078 37.7782 45.4672 37.3189 45.4672 36.7611ZM44.975 37.4392H44.6906C44.6797 37.3736 44.6359 37.0236 44.6359 37.0126C44.6141 36.9361 44.5922 36.8923 44.4937 36.8923H44.2531V37.4392H43.9906V36.072H44.4609C44.625 36.072 44.9422 36.072 44.9422 36.4329C44.9422 36.6845 44.7781 36.7392 44.6797 36.772C44.8656 36.7829 44.8766 36.9032 44.9094 37.0782C44.9203 37.1876 44.9422 37.3736 44.975 37.4392ZM44.6687 36.4767C44.6687 36.2907 44.5375 36.2907 44.4719 36.2907H44.2531V36.6736H44.4609C44.6359 36.6736 44.6687 36.5532 44.6687 36.4767ZM15.0172 20.8907C15.0172 20.5954 14.8641 20.3329 14.6125 20.1907L7.90781 16.3298C7.79844 16.2642 7.66719 16.2314 7.53594 16.2204H7.47031C7.33906 16.2204 7.21875 16.2642 7.09844 16.3298L0.404688 20.1907C0.153125 20.3329 0 20.6064 0 20.8907L0.0109375 31.2814C0.0109375 31.4236 0.0875 31.5548 0.207812 31.6314C0.328125 31.7079 0.48125 31.7079 0.6125 31.6314L4.59375 29.3454C4.84531 29.1923 4.99844 28.9298 4.99844 28.6454V23.7892C4.99844 23.5048 5.15156 23.2314 5.40313 23.0892L7.09844 22.1157C7.22969 22.0392 7.36094 22.0064 7.50312 22.0064C7.64531 22.0064 7.7875 22.0392 7.90781 22.1157L9.60313 23.0892C9.85469 23.2314 10.0078 23.5048 10.0078 23.7892V28.6454C10.0078 28.9298 10.1609 29.2032 10.4125 29.3454L14.3938 31.6314C14.5141 31.7079 14.6781 31.7079 14.7984 31.6314C14.9188 31.5657 14.9953 31.4236 14.9953 31.2814L15.0172 20.8907ZM51.6797 9.54856V28.8423C51.6797 29.1267 51.5266 29.4001 51.275 29.5423L44.5703 33.4142C44.3188 33.5564 44.0125 33.5564 43.7609 33.4142L37.0562 29.5423C36.8047 29.4001 36.6516 29.1267 36.6516 28.8423V21.0986C36.6516 20.8142 36.8047 20.5407 37.0562 20.3986L43.7609 16.5267C44.0125 16.3845 44.3188 16.3845 44.5703 16.5267L46.2437 17.4892C46.4297 17.5986 46.6703 17.4564 46.6703 17.2486V6.96731C46.6703 6.66106 46.9984 6.46418 47.2719 6.61731L51.2641 8.84856C51.5156 8.97981 51.6797 9.25325 51.6797 9.54856ZM46.6484 23.647C46.6484 23.5704 46.6047 23.5048 46.55 23.472L44.2531 22.1376C44.1875 22.1048 44.1109 22.1048 44.0453 22.1376L41.7484 23.472C41.6828 23.5048 41.65 23.5704 41.65 23.647V26.3048C41.65 26.3814 41.6938 26.447 41.7484 26.4798L44.0453 27.8032C44.1109 27.8361 44.1875 27.8361 44.2422 27.8032L46.5391 26.4798C46.6047 26.447 46.6375 26.3814 46.6375 26.3048V23.647H46.6484ZM69.5953 23.5704C69.8469 23.4282 70 23.1548 70 22.8704V21.0001C70 20.7157 69.8469 20.4423 69.5953 20.3001L62.9344 16.4282C62.6828 16.2861 62.3766 16.2861 62.125 16.4282L55.4203 20.3001C55.1688 20.4423 55.0156 20.7157 55.0156 21.0001V28.7439C55.0156 29.0392 55.1688 29.3017 55.4203 29.4439L62.0812 33.2392C62.3219 33.3814 62.6281 33.3814 62.8797 33.2392L66.9047 30.997C67.1781 30.8439 67.1781 30.4501 66.9047 30.297L60.1562 26.4251C60.025 26.3486 59.9484 26.2173 59.9484 26.0751V23.647C59.9484 23.5048 60.025 23.3736 60.1562 23.297L62.2563 22.0829C62.3766 22.0064 62.5406 22.0064 62.6609 22.0829L64.7609 23.297C64.8812 23.3736 64.9688 23.5048 64.9688 23.647V25.5501C64.9688 25.8564 65.3078 26.0532 65.5812 25.9001L69.5953 23.5704ZM61.1406 23.9532C61.0969 23.9861 61.0641 24.0298 61.0641 24.0845V25.572C61.0641 25.6267 61.0969 25.6814 61.1406 25.7032L62.4312 26.447C62.475 26.4798 62.5406 26.4798 62.5844 26.447L63.875 25.7032C63.9188 25.6704 63.9516 25.6267 63.9516 25.572V24.0845C63.9516 24.0298 63.9188 23.9751 63.875 23.9532L62.5844 23.2095C62.5406 23.1767 62.475 23.1767 62.4312 23.2095L61.1406 23.9532ZM33.3375 28.7111V21.0111C33.3375 20.7267 33.1625 20.4532 32.9109 20.3111L26.2281 16.4611C25.9984 16.3298 25.6812 16.3079 25.4187 16.4611L18.7359 20.3111C18.4844 20.4532 18.3094 20.7157 18.3094 21.0111V28.7111C18.3094 29.0173 18.5172 29.2798 18.7469 29.4111L25.4406 33.2611C25.7031 33.4142 26.0094 33.4032 26.25 33.2611L32.9219 29.4111C33.1187 29.3017 33.2609 29.1157 33.3156 28.897C33.3266 28.8423 33.3375 28.7767 33.3375 28.7111ZM25.2109 15.0501L25.1234 15.1048H25.2438L25.2109 15.0501ZM33.5453 29.2907L33.5016 29.2142V29.3126L33.5453 29.2907Z" fill="white"/>
</svg>
