<svg viewBox="0 0 59 67">
<g clip-path="url(#clip0_2014_80)">
<path d="M59 10.4688V16.75C59 22.534 45.7908 27.2188 29.5 27.2188C13.2092 27.2188 0 22.534 0 16.75V10.4688C0 4.68477 13.2092 0 29.5 0C45.7908 0 59 4.68477 59 10.4688ZM51.783 28.0955C54.5223 27.1271 57.0377 25.884 59 24.3529V37.6875C59 43.4715 45.7908 48.1562 29.5 48.1562C13.2092 48.1562 0 43.4715 0 37.6875V24.3529C1.96228 25.8971 4.47768 27.1271 7.21696 28.0955C13.1301 30.1893 21.0056 31.4062 29.5 31.4062C37.9944 31.4062 45.8699 30.1893 51.783 28.0955ZM0 45.2904C1.96228 46.8346 4.47768 48.0647 7.21696 49.033C13.1301 51.1268 21.0056 52.3438 29.5 52.3438C37.9944 52.3438 45.8699 51.1268 51.783 49.033C54.5223 48.0647 57.0377 46.8215 59 45.2904V56.5312C59 62.3152 45.7908 67 29.5 67C13.2092 67 0 62.3152 0 56.5312V45.2904Z" fill="white"/>
</g>
<defs>
<clipPath id="clip0_2014_80">
<rect width="59" height="67" fill="white"/>
</clipPath>
</defs>
</svg>
