<svg viewBox="0 0 52 46">
<path d="M0.848551 7.78042C-0.279921 6.65737 -0.279921 4.84253 0.848551 3.71948C1.97702 2.59644 3.80966 2.59644 4.93813 3.71948L22.2715 20.9695C23.3999 22.0925 23.3999 23.9164 22.2715 25.0394L4.93813 42.2894C3.80966 43.4125 1.97702 43.4125 0.848551 42.2894C-0.279921 41.1664 -0.279921 39.3425 0.848551 38.2195L16.1326 23L0.848551 7.78042ZM23.1111 37.375H49.111C50.709 37.375 51.9999 38.6597 51.9999 40.25C51.9999 41.8402 50.709 43.125 49.111 43.125H23.1111C21.5131 43.125 20.2222 41.8402 20.2222 40.25C20.2222 38.6597 21.5131 37.375 23.1111 37.375Z" fill="white"/>
</svg>
