<svg viewBox="0 0 63 63">
    <path d="M6.38928 56.8352L9.92516 43.9267C7.74378 40.1494 6.59666 35.8627 6.59797 31.4724C6.60453 17.7371 17.7818 6.5625 31.5184 6.5625C38.1846 6.56512 44.44 9.15994 49.1453 13.8679C53.8493 18.5771 56.4402 24.8351 56.4375 31.4921C56.4323 45.2274 45.2524 56.4034 31.5184 56.4034H31.5079C27.3381 56.4021 23.2392 55.356 19.5996 53.3702L6.38928 56.8352Z" fill="white"/>
    <path d="M6.3892 57.4914C6.21595 57.4914 6.04795 57.4232 5.92326 57.2972C5.7592 57.1305 5.69488 56.8877 5.75657 56.6633L9.22026 44.016C7.07301 40.2019 5.94032 35.8706 5.94295 31.4737C5.9482 17.3749 17.4208 5.90625 31.5183 5.90625C38.3565 5.90888 44.7811 8.57194 49.6098 13.4046C54.4385 18.2385 57.0963 24.6619 57.0937 31.4921C57.0884 45.5897 45.6146 57.0596 31.5183 57.0596C27.3328 57.0583 23.1918 56.0254 19.5168 54.0711L6.55588 57.4691C6.50076 57.4849 6.44563 57.4914 6.3892 57.4914Z" fill="white"/>
    <path d="M46.1684 16.842C42.2572 12.9281 37.0584 10.7717 31.5249 10.7704C20.1009 10.7704 10.8097 20.0576 10.8044 31.4737C10.8031 35.3863 11.8978 39.1952 13.9715 42.4935L14.465 43.2771L12.3716 50.9171L20.2111 48.8617L20.9684 49.3106C24.1473 51.198 27.7934 52.1955 31.5104 52.1968H31.5183C42.9344 52.1968 52.2256 42.9082 52.2296 31.4908C52.2309 25.9586 50.0797 20.7559 46.1684 16.842Z" fill="#40C351"/>
    <path fill-rule="evenodd" clip-rule="evenodd" d="M25.2892 21.0591C24.8233 20.0222 24.3324 20.0012 23.8874 19.9828C23.5239 19.9671 23.1091 19.9684 22.6944 19.9684C22.2796 19.9684 21.605 20.1246 21.0341 20.748C20.4631 21.3714 18.854 22.8769 18.854 25.9403C18.854 29.0036 21.0853 31.9646 21.3963 32.3794C21.7074 32.7941 25.7039 39.2818 32.0328 41.7782C37.292 43.8519 38.363 43.4398 39.5049 43.3361C40.6468 43.2324 43.1891 41.8307 43.7075 40.3764C44.2259 38.9222 44.2259 37.6766 44.0711 37.4168C43.9149 37.1569 43.5001 37.002 42.878 36.6896C42.2559 36.3773 39.1938 34.8718 38.6229 34.6644C38.0519 34.4571 37.6372 34.3534 37.2211 34.9768C36.8064 35.5989 35.6133 37.002 35.2498 37.4168C34.8862 37.8328 34.5226 37.8853 33.9005 37.5729C33.2784 37.2606 31.2729 36.6043 28.8933 34.4833C27.0427 32.8335 25.7932 30.7952 25.4296 30.1718C25.0661 29.5496 25.3903 29.2123 25.7026 28.9013C25.9822 28.6217 26.3248 28.1741 26.6371 27.8106C26.9482 27.447 27.0519 27.1871 27.2593 26.7724C27.4666 26.3563 27.3629 25.9928 27.2068 25.6817C27.0532 25.3693 25.8431 22.2902 25.2892 21.0591Z" fill="white"/>
</svg>